<svg width="1682" height="3111" viewBox="0 0 1682 3111" fill="none" xmlns="http://www.w3.org/2000/svg">
<g clip-path="url(#clip0_0_435)">
<path d="M124 772.937C119.335 703.979 13.6696 711.402 -1.52588e-05 718.229V916.937C29.1617 913.088 133.814 918.024 124 772.937Z" fill="#F3F3F3"/>
<path d="M1560 2048.36C1560 2142.33 1631.17 2199.85 1682 2218V1885C1637.64 1891.28 1560 1935.26 1560 2048.36Z" fill="#FFD542" stroke="#F3F3F3"/>
<path d="M1560 443.358C1560 537.334 1631.17 594.849 1682 613V280C1637.64 286.283 1560 330.264 1560 443.358Z" fill="#F3F3F3" stroke="#F3F3F3"/>
<path d="M124 2333.94C119.336 2264.98 13.6699 2272.4 0.000350952 2279.23V2477.94C29.162 2474.09 133.815 2479.02 124 2333.94Z" fill="#F3F3F3"/>
<path d="M133.775 1039.36C118.111 1113.85 11.5072 1109.66 0.000732422 1102.08V881.415C32.2914 794.488 166.988 881.415 133.775 1039.36Z" fill="#56C3B8"/>
<path d="M133.775 2600.36C118.111 2674.85 11.5072 2670.66 0.000732422 2663.08V2442.41C32.2914 2355.49 166.988 2442.41 133.775 2600.36Z" fill="#56C3B8"/>
<path d="M1549.23 1168.64C1564.89 1094.15 1671.49 1098.34 1683 1105.92V1326.59C1650.71 1413.51 1516.01 1326.59 1549.23 1168.64Z" fill="#F3F3F3"/>
<path d="M1592 1054.75C1592 987.307 1643.33 946.027 1680 933V1172C1648 1167.49 1592 1135.92 1592 1054.75Z" fill="#FFD542" stroke="#FFD542"/>
<path d="M1590 2919.75C1590 2852.31 1641.33 2811.03 1678 2798V3037C1646 3032.49 1590 3000.92 1590 2919.75Z" fill="#FFD542" stroke="#FFD542"/>
</g>
<defs>
<clipPath id="clip0_0_435">
<rect width="1682" height="3111" fill="white"/>
</clipPath>
</defs>
</svg>
