
<svg width="89" height="34" viewBox="0 0 89 34" fill="none" xmlns="http://www.w3.org/2000/svg">
<path d="M0 3C0 1.34315 1.34315 0 3 0H86C87.6569 0 89 1.34315 89 3V23.0188C89 24.4586 87.9771 25.6954 86.5629 25.9655L45.0629 33.8925C44.691 33.9635 44.309 33.9635 43.9371 33.8925L2.43714 25.9655C1.02289 25.6954 0 24.4586 0 23.0188V3Z" fill="#FF2C4C"/>
<path d="M16.5196 9.8C16.5196 8.976 16.7036 8.24 17.0716 7.592C17.4476 6.936 17.9556 6.428 18.5956 6.068C19.2436 5.7 19.9676 5.516 20.7676 5.516C21.7036 5.516 22.5236 5.756 23.2276 6.236C23.9316 6.716 24.4236 7.38 24.7036 8.228H22.7716C22.5796 7.828 22.3076 7.528 21.9556 7.328C21.6116 7.128 21.2116 7.028 20.7556 7.028C20.2676 7.028 19.8316 7.144 19.4476 7.376C19.0716 7.6 18.7756 7.92 18.5596 8.336C18.3516 8.752 18.2476 9.24 18.2476 9.8C18.2476 10.352 18.3516 10.84 18.5596 11.264C18.7756 11.68 19.0716 12.004 19.4476 12.236C19.8316 12.46 20.2676 12.572 20.7556 12.572C21.2116 12.572 21.6116 12.472 21.9556 12.272C22.3076 12.064 22.5796 11.76 22.7716 11.36H24.7036C24.4236 12.216 23.9316 12.884 23.2276 13.364C22.5316 13.836 21.7116 14.072 20.7676 14.072C19.9676 14.072 19.2436 13.892 18.5956 13.532C17.9556 13.164 17.4476 12.656 17.0716 12.008C16.7036 11.36 16.5196 10.624 16.5196 9.8ZM31.2265 14.084C30.4425 14.084 29.7225 13.9 29.0665 13.532C28.4105 13.164 27.8905 12.656 27.5065 12.008C27.1225 11.352 26.9305 10.612 26.9305 9.788C26.9305 8.972 27.1225 8.24 27.5065 7.592C27.8905 6.936 28.4105 6.424 29.0665 6.056C29.7225 5.688 30.4425 5.504 31.2265 5.504C32.0185 5.504 32.7385 5.688 33.3865 6.056C34.0425 6.424 34.5585 6.936 34.9345 7.592C35.3185 8.24 35.5105 8.972 35.5105 9.788C35.5105 10.612 35.3185 11.352 34.9345 12.008C34.5585 12.656 34.0425 13.164 33.3865 13.532C32.7305 13.9 32.0105 14.084 31.2265 14.084ZM31.2265 12.584C31.7305 12.584 32.1745 12.472 32.5585 12.248C32.9425 12.016 33.2425 11.688 33.4585 11.264C33.6745 10.84 33.7825 10.348 33.7825 9.788C33.7825 9.228 33.6745 8.74 33.4585 8.324C33.2425 7.9 32.9425 7.576 32.5585 7.352C32.1745 7.128 31.7305 7.016 31.2265 7.016C30.7225 7.016 30.2745 7.128 29.8825 7.352C29.4985 7.576 29.1985 7.9 28.9825 8.324C28.7665 8.74 28.6585 9.228 28.6585 9.788C28.6585 10.348 28.7665 10.84 28.9825 11.264C29.1985 11.688 29.4985 12.016 29.8825 12.248C30.2745 12.472 30.7225 12.584 31.2265 12.584ZM47.0924 5.624V14H45.4124V8.552L43.1684 14H41.8964L39.6404 8.552V14H37.9604V5.624H39.8684L42.5324 11.852L45.1964 5.624H47.0924ZM51.6334 5.624V14H49.9534V5.624H51.6334ZM61.6572 14H59.9772L56.1732 8.252V14H54.4932V5.612H56.1732L59.9772 11.372V5.612H61.6572V14ZM70.3495 8.144C70.1575 7.792 69.8935 7.524 69.5575 7.34C69.2215 7.156 68.8295 7.064 68.3815 7.064C67.8855 7.064 67.4455 7.176 67.0615 7.4C66.6775 7.624 66.3775 7.944 66.1615 8.36C65.9455 8.776 65.8375 9.256 65.8375 9.8C65.8375 10.36 65.9455 10.848 66.1615 11.264C66.3855 11.68 66.6935 12 67.0855 12.224C67.4775 12.448 67.9335 12.56 68.4535 12.56C69.0935 12.56 69.6175 12.392 70.0255 12.056C70.4335 11.712 70.7015 11.236 70.8295 10.628H67.9495V9.344H72.4855V10.808C72.3735 11.392 72.1335 11.932 71.7655 12.428C71.3975 12.924 70.9215 13.324 70.3375 13.628C69.7615 13.924 69.1135 14.072 68.3935 14.072C67.5855 14.072 66.8535 13.892 66.1975 13.532C65.5495 13.164 65.0375 12.656 64.6615 12.008C64.2935 11.36 64.1095 10.624 64.1095 9.8C64.1095 8.976 64.2935 8.24 64.6615 7.592C65.0375 6.936 65.5495 6.428 66.1975 6.068C66.8535 5.7 67.5815 5.516 68.3815 5.516C69.3255 5.516 70.1455 5.748 70.8415 6.212C71.5375 6.668 72.0175 7.312 72.2815 8.144H70.3495ZM28.9298 26.084C28.3458 26.084 27.8178 25.984 27.3458 25.784C26.8818 25.584 26.5138 25.296 26.2418 24.92C25.9698 24.544 25.8298 24.1 25.8218 23.588H27.6218C27.6458 23.932 27.7658 24.204 27.9818 24.404C28.2058 24.604 28.5098 24.704 28.8938 24.704C29.2858 24.704 29.5938 24.612 29.8178 24.428C30.0418 24.236 30.1538 23.988 30.1538 23.684C30.1538 23.436 30.0778 23.232 29.9258 23.072C29.7738 22.912 29.5818 22.788 29.3498 22.7C29.1258 22.604 28.8138 22.5 28.4138 22.388C27.8698 22.228 27.4258 22.072 27.0818 21.92C26.7458 21.76 26.4538 21.524 26.2058 21.212C25.9658 20.892 25.8458 20.468 25.8458 19.94C25.8458 19.444 25.9698 19.012 26.2178 18.644C26.4658 18.276 26.8138 17.996 27.2618 17.804C27.7098 17.604 28.2218 17.504 28.7978 17.504C29.6618 17.504 30.3618 17.716 30.8978 18.14C31.4418 18.556 31.7418 19.14 31.7978 19.892H29.9498C29.9338 19.604 29.8098 19.368 29.5778 19.184C29.3538 18.992 29.0538 18.896 28.6778 18.896C28.3498 18.896 28.0858 18.98 27.8858 19.148C27.6938 19.316 27.5978 19.56 27.5978 19.88C27.5978 20.104 27.6698 20.292 27.8138 20.444C27.9658 20.588 28.1498 20.708 28.3658 20.804C28.5898 20.892 28.9018 20.996 29.3018 21.116C29.8458 21.276 30.2898 21.436 30.6338 21.596C30.9778 21.756 31.2738 21.996 31.5218 22.316C31.7698 22.636 31.8938 23.056 31.8938 23.576C31.8938 24.024 31.7778 24.44 31.5458 24.824C31.3138 25.208 30.9738 25.516 30.5258 25.748C30.0778 25.972 29.5458 26.084 28.9298 26.084ZM38.4383 26.084C37.6543 26.084 36.9343 25.9 36.2783 25.532C35.6223 25.164 35.1023 24.656 34.7183 24.008C34.3343 23.352 34.1423 22.612 34.1423 21.788C34.1423 20.972 34.3343 20.24 34.7183 19.592C35.1023 18.936 35.6223 18.424 36.2783 18.056C36.9343 17.688 37.6543 17.504 38.4383 17.504C39.2303 17.504 39.9503 17.688 40.5983 18.056C41.2543 18.424 41.7703 18.936 42.1463 19.592C42.5303 20.24 42.7223 20.972 42.7223 21.788C42.7223 22.612 42.5303 23.352 42.1463 24.008C41.7703 24.656 41.2543 25.164 40.5983 25.532C39.9423 25.9 39.2223 26.084 38.4383 26.084ZM38.4383 24.584C38.9423 24.584 39.3863 24.472 39.7703 24.248C40.1543 24.016 40.4543 23.688 40.6703 23.264C40.8863 22.84 40.9943 22.348 40.9943 21.788C40.9943 21.228 40.8863 20.74 40.6703 20.324C40.4543 19.9 40.1543 19.576 39.7703 19.352C39.3863 19.128 38.9423 19.016 38.4383 19.016C37.9343 19.016 37.4863 19.128 37.0943 19.352C36.7103 19.576 36.4103 19.9 36.1943 20.324C35.9783 20.74 35.8703 21.228 35.8703 21.788C35.8703 22.348 35.9783 22.84 36.1943 23.264C36.4103 23.688 36.7103 24.016 37.0943 24.248C37.4863 24.472 37.9343 24.584 38.4383 24.584ZM49.0601 26.084C48.2761 26.084 47.5561 25.9 46.9001 25.532C46.2441 25.164 45.7241 24.656 45.3401 24.008C44.9561 23.352 44.7641 22.612 44.7641 21.788C44.7641 20.972 44.9561 20.24 45.3401 19.592C45.7241 18.936 46.2441 18.424 46.9001 18.056C47.5561 17.688 48.2761 17.504 49.0601 17.504C49.8521 17.504 50.5721 17.688 51.2201 18.056C51.8761 18.424 52.3921 18.936 52.7681 19.592C53.1521 20.24 53.3441 20.972 53.3441 21.788C53.3441 22.612 53.1521 23.352 52.7681 24.008C52.3921 24.656 51.8761 25.164 51.2201 25.532C50.5641 25.9 49.8441 26.084 49.0601 26.084ZM49.0601 24.584C49.5641 24.584 50.0081 24.472 50.3921 24.248C50.7761 24.016 51.0761 23.688 51.2921 23.264C51.5081 22.84 51.6161 22.348 51.6161 21.788C51.6161 21.228 51.5081 20.74 51.2921 20.324C51.0761 19.9 50.7761 19.576 50.3921 19.352C50.0081 19.128 49.5641 19.016 49.0601 19.016C48.5561 19.016 48.1081 19.128 47.7161 19.352C47.3321 19.576 47.0321 19.9 46.8161 20.324C46.6001 20.74 46.4921 21.228 46.4921 21.788C46.4921 22.348 46.6001 22.84 46.8161 23.264C47.0321 23.688 47.3321 24.016 47.7161 24.248C48.1081 24.472 48.5561 24.584 49.0601 24.584ZM62.958 26H61.278L57.474 20.252V26H55.794V17.612H57.474L61.278 23.372V17.612H62.958V26Z" fill="white"/>
</svg>
