<svg width="22" height="14" viewBox="0 0 22 14" fill="none" xmlns="http://www.w3.org/2000/svg">
<path d="M21.8671 6.46771C19.7958 2.61005 15.6953 0 11 0C6.30475 0 2.20304 2.61188 0.132896 6.46807C0.045523 6.63305 0 6.81532 0 7.00018C0 7.18504 0.045523 7.36731 0.132896 7.53229C2.20418 11.3899 6.30475 14 11 14C15.6953 14 19.797 11.3881 21.8671 7.53193C21.9545 7.36695 22 7.18468 22 6.99982C22 6.81496 21.9545 6.63269 21.8671 6.46771ZM11 12.25C9.9122 12.25 8.84883 11.9421 7.94436 11.3652C7.03989 10.7883 6.33494 9.9684 5.91865 9.00909C5.50237 8.04978 5.39345 6.99418 5.60567 5.97578C5.81789 4.95738 6.34172 4.02191 7.11091 3.28769C7.8801 2.55346 8.8601 2.05345 9.927 1.85088C10.9939 1.6483 12.0998 1.75227 13.1048 2.14963C14.1098 2.54699 14.9687 3.2199 15.5731 4.08326C16.1774 4.94661 16.5 5.96165 16.5 7C16.5004 7.68953 16.3583 8.37237 16.0821 9.00949C15.8058 9.6466 15.4007 10.2255 14.8899 10.7131C14.3791 11.2006 13.7726 11.5873 13.1052 11.8511C12.4377 12.1148 11.7224 12.2503 11 12.25ZM11 3.5C10.6727 3.50437 10.3476 3.55084 10.0333 3.63818C10.2923 3.9742 10.4166 4.38772 10.3837 4.80373C10.3507 5.21974 10.1626 5.6107 9.85359 5.9057C9.54454 6.20071 9.13496 6.38022 8.69914 6.41169C8.26332 6.44316 7.83011 6.32451 7.47808 6.07724C7.27763 6.78219 7.31381 7.5294 7.58155 8.2137C7.84928 8.89799 8.33508 9.48492 8.97058 9.89186C9.60607 10.2988 10.3593 10.5053 11.1241 10.4822C11.889 10.4591 12.627 10.2077 13.2343 9.76329C13.8417 9.31887 14.2877 8.70385 14.5096 8.00479C14.7316 7.30573 14.7183 6.55783 14.4716 5.86635C14.2249 5.17488 13.7573 4.57466 13.1346 4.15017C12.5118 3.72567 11.7652 3.49828 11 3.5Z" fill="white"/>
</svg>
