<svg width="20" height="21" viewBox="0 0 20 21" fill="none" xmlns="http://www.w3.org/2000/svg">
<circle cx="10" cy="10.25" r="9.5" stroke="#ADAFB5"/>
<path d="M8.61458 13.2072H8.97917V10.6678H8.61458C8.41322 10.6678 8.25 10.5105 8.25 10.3163V9.47656C8.25 9.28239 8.41322 9.125 8.61458 9.125H10.6562C10.8576 9.125 11.0208 9.28239 11.0208 9.47656V13.2072H11.3854C11.5868 13.2072 11.75 13.3645 11.75 13.5587V14.3984C11.75 14.5926 11.5868 14.75 11.3854 14.75H8.61458C8.41322 14.75 8.25 14.5926 8.25 14.3984V13.5587C8.25 13.3645 8.41322 13.2072 8.61458 13.2072ZM10 5.75C9.27512 5.75 8.6875 6.31663 8.6875 7.01562C8.6875 7.71462 9.27512 8.28125 10 8.28125C10.7249 8.28125 11.3125 7.71462 11.3125 7.01562C11.3125 6.31663 10.7249 5.75 10 5.75Z" fill="#ADAFB5"/>
</svg>
