 <svg width="20" height="20" viewBox="0 0 20 20" fill="none" xmlns="http://www.w3.org/2000/svg"  >
            <circle cx="10" cy="10" r="9.5" stroke="white"  />
            <path d="M8.61458 12.7072H8.97917V10.1678H8.61458C8.41322 10.1678 8.25 10.0105 8.25 9.81629V8.97656C8.25 8.78239 8.41322 8.625 8.61458 8.625H10.6562C10.8576 8.625 11.0208 8.78239 11.0208 8.97656V12.7072H11.3854C11.5868 12.7072 11.75 12.8645 11.75 13.0587V13.8984C11.75 14.0926 11.5868 14.25 11.3854 14.25H8.61458C8.41322 14.25 8.25 14.0926 8.25 13.8984V13.0587C8.25 12.8645 8.41322 12.7072 8.61458 12.7072ZM10 5.25C9.27512 5.25 8.6875 5.81663 8.6875 6.51562C8.6875 7.21462 9.27512 7.78125 10 7.78125C10.7249 7.78125 11.3125 7.21462 11.3125 6.51562C11.3125 5.81663 10.7249 5.25 10 5.25Z" fill="white" />
        </svg>