<svg xmlns="http://www.w3.org/2000/svg" width="157.545" height="151.134" viewBox="0 0 157.545 151.134">
  <g id="landing-image-03.4419997899edf56449a1a803a16cffee" transform="translate(0 -1.758)">
    <path id="Path_1" data-name="Path 1" d="M121.2,15.277,133.328,3" transform="translate(0 3)" fill="none" stroke="#56C3B8" stroke-linecap="round" stroke-width="6"/>
    <path id="Path_2" data-name="Path 2" d="M37.35,20.049H49.473" transform="translate(0 5)" fill="none" stroke="#56C3B8" stroke-linecap="round" stroke-width="6"/>
    <path id="Path_3" data-name="Path 3" d="M37.35,37.1H52.5" transform="translate(0 4.239)" fill="none" stroke="#56C3B8" stroke-linecap="round" stroke-width="6"/>
    <path id="Path_4" data-name="Path 4" d="M109.081,9.018V3" transform="translate(0 3)" fill="none" stroke="#56C3B8" stroke-linecap="round" stroke-width="6"/>
    <path id="Path_5" data-name="Path 5" d="M126.256,26.066h7.072" transform="translate(0 3)" fill="none" stroke="#56C3B8" stroke-linecap="round" stroke-width="6"/>
    <path id="Path_6" data-name="Path 6" d="M28.258,137.883H53.01" transform="translate(0 -3.101)" fill="none" stroke="#56C3B8" stroke-linecap="round" stroke-width="6"/>
    <path id="Path_7" data-name="Path 7" d="M11.588,152.926,52.5,115.82c4.21-4.178,15.457-13.037,26.773-13.037s20.711,8.524,26.268,13.539l40.412,36.6" transform="translate(0 -3.101)" fill="none" stroke="#7888c3" stroke-width="6"/>
    <path id="Path_8" data-name="Path 8" d="M3,66.18V143.4c0,3.268,2.122,9.527,10.608,9.527H120.194" transform="translate(0 -3.101)" fill="none" stroke="#7888c3" stroke-linecap="round" stroke-width="6"/>
    <path id="Path_9" data-name="Path 9" d="M69.679,85.734,82.813,98.771,91.4,90.247,78.267,77.21m0,0L67.659,87.238c-3.7,3.844-13.033,9.627-20.711,2.006S42.4,74.368,44.927,71.694L58.566,58.156m19.7,19.054-19.7-19.054m19.7,19.054,36.37-15.8M58.566,58.156,79.782,9.518l16.67,16.547m18.185,35.35,12.124-5.265L110.6,40.1m4.041,21.31L74.314,22.053m22.138,4.012c2.357-2.674,8.386-6.519,13.639-.5a10.914,10.914,0,0,1,.5,14.541M96.452,26.065,110.6,40.1" fill="none" stroke="#56C3B8" stroke-linecap="round" stroke-linejoin="round" stroke-width="6"/>
    <path id="Path_10" data-name="Path 10" d="M154.544,65.176V143.4" transform="translate(0 -3.101)" fill="none" stroke="#7888c3" stroke-linecap="round" stroke-width="6"/>
    <path id="Path_11" data-name="Path 11" d="M154.545,143.4c0,5.516-.809,9.527-10.1,9.527s-20.375.168-24.753,0" transform="translate(0 -3.101)" fill="none" stroke="#7888c3" stroke-width="6"/>
    <path id="Path_12" data-name="Path 12" d="M104.535,115.821,132.883,87.24m0,0,21.662-22.063L132.883,49.633l-.06-5.014Z" transform="translate(0 -1.58)" fill="none" stroke="#7888c3" stroke-linejoin="round" stroke-width="6"/>
    <path id="Path_13" data-name="Path 13" d="M51.5,112.818,24.721,86.738M24.721,6l-.505,43.131L3,65.678l21.721,21.06M24.721,7V86.738M24.721,6H63.112" fill="none" stroke="#7888c3" stroke-linecap="round" stroke-linejoin="round" stroke-width="6"/>
  </g>
</svg>
