<svg xmlns="http://www.w3.org/2000/svg" width="201.823" height="149.999" viewBox="0 0 201.823 149.999">
  <g id="landing-image-04.8f6f5f48fa836462b56d10f5871d6f16" transform="translate(-0.149)">
    <path id="Path_14" data-name="Path 14" d="M.149,12.08h201.32l.5,137.919H.653Z" fill="#56C3B8"/>
    <path id="Path_15" data-name="Path 15" d="M7.249,19.127H194.4l.468,120.805H7.717Z" fill="#fff"/>
    <path id="Path_16" data-name="Path 16" d="M63.029,74.5h-35.5v-45.3h35.5Z" fill="none" stroke="#e8e8e8" stroke-width="6"/>
    <path id="Path_17" data-name="Path 17" d="M118.809,74.5h-35.5v-45.3h35.5Z" fill="none" stroke="#7888c3" stroke-width="6"/>
    <path id="Path_18" data-name="Path 18" d="M174.591,74.5H139.1v-45.3h35.5Z" fill="none" stroke="#e8e8e8" stroke-width="6"/>
    <path id="Path_19" data-name="Path 19" d="M63.029,129.864h-35.5v-45.3h35.5Z" fill="none" stroke="#e8e8e8" stroke-width="6"/>
    <path id="Path_20" data-name="Path 20" d="M118.809,129.864h-35.5v-45.3h35.5Z" fill="none" stroke="#e8e8e8" stroke-width="6"/>
    <path id="Path_21" data-name="Path 21" d="M174.591,129.864H139.1v-45.3h35.5Z" fill="none" stroke="#7888c3" stroke-width="6"/>
    <path id="Path_22" data-name="Path 22" d="M.149,0V12.08H201.972V0Z" fill="#7888c3"/>
    <path id="Path_23" data-name="Path 23" d="M94.065,60.863l11.95-17.5h2.975l-11.95,17.5Zm1.525-8.05a4.067,4.067,0,0,1-3.8-2.25,5.691,5.691,0,0,1-.55-2.575,5.534,5.534,0,0,1,.55-2.55,4.3,4.3,0,0,1,1.55-1.675,4.519,4.519,0,0,1,4.5,0,4.124,4.124,0,0,1,1.525,1.675,5.533,5.533,0,0,1,.55,2.55,5.69,5.69,0,0,1-.55,2.575,4.125,4.125,0,0,1-1.525,1.675A4.346,4.346,0,0,1,95.59,52.813Zm0-2.05a1.57,1.57,0,0,0,1.325-.675,3.615,3.615,0,0,0,.5-2.1,3.491,3.491,0,0,0-.5-2.075,1.553,1.553,0,0,0-1.325-.7,1.6,1.6,0,0,0-1.325.7,3.492,3.492,0,0,0-.5,2.075,3.563,3.563,0,0,0,.5,2.075A1.6,1.6,0,0,0,95.59,50.763Zm11.875,10.3a4.434,4.434,0,0,1-2.25-.575,4.128,4.128,0,0,1-1.525-1.675,5.7,5.7,0,0,1-.55-2.575,5.541,5.541,0,0,1,.55-2.55,4.127,4.127,0,0,1,1.525-1.675,4.566,4.566,0,0,1,4.525,0,4.12,4.12,0,0,1,1.525,1.675,5.529,5.529,0,0,1,.55,2.55,5.686,5.686,0,0,1-.55,2.575,4.121,4.121,0,0,1-1.525,1.675A4.395,4.395,0,0,1,107.465,61.063Zm0-2.05a1.569,1.569,0,0,0,1.325-.675,3.61,3.61,0,0,0,.5-2.1,3.557,3.557,0,0,0-.5-2.075,1.552,1.552,0,0,0-1.325-.7,1.6,1.6,0,0,0-1.325.7,3.494,3.494,0,0,0-.5,2.075,3.618,3.618,0,0,0,.5,2.1A1.613,1.613,0,0,0,107.465,59.013Z" fill="#7888c3"/>
    <path id="Path_24" data-name="Path 24" d="M149.771,116.154l11.95-17.5H164.7l-11.95,17.5Zm1.525-8.05a4.067,4.067,0,0,1-3.8-2.25,5.7,5.7,0,0,1-.55-2.575,5.544,5.544,0,0,1,.55-2.55,4.311,4.311,0,0,1,1.55-1.675,4.519,4.519,0,0,1,4.5,0,4.124,4.124,0,0,1,1.525,1.675,5.531,5.531,0,0,1,.55,2.55,5.683,5.683,0,0,1-.55,2.575,4.118,4.118,0,0,1-1.525,1.675A4.339,4.339,0,0,1,151.3,108.1Zm0-2.05a1.569,1.569,0,0,0,1.325-.675,3.607,3.607,0,0,0,.5-2.1,3.488,3.488,0,0,0-.5-2.075,1.554,1.554,0,0,0-1.325-.7,1.6,1.6,0,0,0-1.325.7,3.5,3.5,0,0,0-.5,2.075,3.563,3.563,0,0,0,.5,2.075A1.594,1.594,0,0,0,151.3,106.054Zm11.875,10.3a4.427,4.427,0,0,1-2.25-.575A4.125,4.125,0,0,1,159.4,114.1a5.7,5.7,0,0,1-.55-2.575,5.544,5.544,0,0,1,.55-2.55,4.131,4.131,0,0,1,1.525-1.675,4.566,4.566,0,0,1,4.525,0,4.125,4.125,0,0,1,1.525,1.675,5.531,5.531,0,0,1,.55,2.55,5.683,5.683,0,0,1-.55,2.575,4.118,4.118,0,0,1-1.525,1.675A4.388,4.388,0,0,1,163.171,116.354Zm0-2.05a1.569,1.569,0,0,0,1.325-.675,3.607,3.607,0,0,0,.5-2.1,3.56,3.56,0,0,0-.5-2.075,1.554,1.554,0,0,0-1.325-.7,1.6,1.6,0,0,0-1.325.7,3.5,3.5,0,0,0-.5,2.075,3.615,3.615,0,0,0,.5,2.1A1.613,1.613,0,0,0,163.171,114.3Z" fill="#7888c3"/>
  </g>
</svg>
