<svg width="436" height="369" viewBox="0 0 436 369" fill="none" xmlns="http://www.w3.org/2000/svg">
<path d="M28.5813 99.3428C55.1076 16.5129 92.1977 11.9113 163.19 0.866976C263.685 -6.49531 256.683 35.4526 292.113 35.4526C427.021 62.8868 407.944 132.615 427.021 171.481C465.177 291.505 358.886 286.933 324.818 315.51C199.449 409.244 63.175 353.905 48.185 341.331C-3.59812 293.321 -12.5471 233.612 16.0697 203.892C44.6864 174.171 12.6655 149.041 28.5813 99.3428Z" fill="#E9F2F7"/>
<rect x="166.821" y="249" width="119" height="6" fill="#7888C3"/>
<path d="M172.899 207.09L302.728 193.82L303.338 199.788L173.51 213.059L172.899 207.09Z" fill="#7888C3"/>
<rect x="80.8213" y="274" width="75" height="2" fill="#AEB0B6"/>
<rect x="57.8213" y="283" width="98" height="2" fill="#AEB0B6"/>
<circle cx="274.321" cy="269.5" r="9.5" fill="#7888C3"/>
<circle cx="176.321" cy="269.5" r="9.5" fill="#7888C3"/>
<path d="M273.563 246.921C273.563 246.921 295.119 246.921 295.119 230.183" stroke="#AEB0B6" stroke-width="2.47" stroke-linecap="square"/>
<path d="M168.274 204.029C168.274 204.029 167.686 108.289 94.4217 80.0611C94.4217 80.0611 80.4497 74.8745 66.4777 90.4309" stroke="#7888C3" stroke-width="6" stroke-linecap="square"/>
<path d="M150.31 108.655L181.07 162.813L297.087 151.725L315.737 93.7291C315.737 93.7291 222.003 94.7952 150.31 108.655Z" stroke="#7888C3" stroke-width="6" stroke-linecap="square"/>
<path d="M188.743 159.53L211.268 133.517L172.515 126.907L188.743 159.53Z" fill="#7888C3"/>
<path d="M210.783 128.824L250.505 92.5768L215.627 64.8581L176.632 100.892L210.783 128.824Z" fill="#56C3B8"/>
<path d="M159.919 56.9721L174.209 80.6396L201.579 68.9124L187.289 45.2449L159.919 56.9721Z" fill="#7888C3"/>
<path d="M229.675 67.8426L243.481 49.5056L285.625 73.5995L274.725 92.1497L229.675 67.8426Z" fill="#7888C3"/>
<path d="M287.036 49.9346C287.036 49.9346 315.858 58.6767 305.928 77.2269" stroke="#AEB0B6" stroke-width="2" stroke-linecap="square"/>
<path d="M309.319 55.2651C309.319 55.2651 322.883 68.0583 311.499 80.6383" stroke="#AEB0B6" stroke-width="2" stroke-linecap="square"/>
<path d="M216.354 55.565C223.9 55.565 230.017 50.1799 230.017 43.5371C230.017 36.8942 223.9 31.5091 216.354 31.5091C208.808 31.5091 202.691 36.8942 202.691 43.5371C202.691 50.1799 208.808 55.565 216.354 55.565Z" fill="#56C3B8"/>
<path d="M154.349 85.86C159.23 85.86 163.186 82.5678 163.186 78.5067C163.186 74.4455 159.23 71.1534 154.349 71.1534C149.468 71.1534 145.512 74.4455 145.512 78.5067C145.512 82.5678 149.468 85.86 154.349 85.86Z" fill="#7888C3"/>
<path d="M260.463 148.652C274.449 148.652 285.787 139.1 285.787 127.318C285.787 115.536 274.449 105.985 260.463 105.985C246.477 105.985 235.14 115.536 235.14 127.318C235.14 139.1 246.477 148.652 260.463 148.652Z" fill="#56C3B8"/>
<path d="M168.882 125.842C168.882 125.842 255.107 116.674 271.82 116.034" stroke="#7888C3" stroke-width="2" stroke-linecap="square"/>
<path d="M215.143 111.768L226.526 148.442" stroke="#7888C3" stroke-width="2" stroke-linecap="square"/>
<path d="M214.416 142.258L276.905 135.861" stroke="#7888C3" stroke-width="2" stroke-linecap="square"/>
<path d="M178.254 110.698L199.212 159.72" stroke="#7888C3" stroke-width="2" stroke-linecap="square"/>
<path d="M263.1 124.988L264.797 154.199" stroke="#7888C3" stroke-width="2" stroke-linecap="square"/>
<path d="M291.028 117.117L307.982 115.412" stroke="#7888C3" stroke-width="2" stroke-linecap="square"/>
</svg>
