<svg width="460" height="460" viewBox="0 0 460 460" fill="none" xmlns="http://www.w3.org/2000/svg">
<path d="M428.841 144.682C428.841 59.1555 409.111 19.9507 313.94 5.70201C228.25 -7.12714 181.928 5.70138 144.509 5.70138C2.02606 37.5697 29.1535 185.409 9.00443 230.556C-31.2937 369.98 80.9654 364.669 116.946 397.865C249.354 506.748 393.279 442.465 409.111 427.859C463.801 372.089 473.252 302.73 443.029 268.206C412.806 233.682 443.029 219.518 428.841 144.682Z" fill="#E9F2F7"/>
<path d="M371.694 108.37L108.214 108.464C98.2187 108.468 90.119 115.644 90.1231 124.492L90.2051 303.207C90.2092 312.056 98.3154 319.226 108.311 319.223L371.791 319.128C381.786 319.125 389.886 311.949 389.882 303.1L389.8 124.385C389.796 115.537 381.689 108.366 371.694 108.37Z" stroke="#7888C3" stroke-width="6" stroke-linecap="round" stroke-linejoin="round"/>
<path d="M128.824 148.866C135.922 148.866 141.676 143.773 141.676 137.49C141.676 131.206 135.922 126.113 128.824 126.113C121.727 126.113 115.973 131.206 115.973 137.49C115.973 143.773 121.727 148.866 128.824 148.866Z" stroke="#7888C3" stroke-width="6" stroke-linecap="round" stroke-linejoin="round"/>
<path d="M171.513 148.866C178.611 148.866 184.365 143.773 184.365 137.49C184.365 131.206 178.611 126.113 171.513 126.113C164.416 126.113 158.662 131.206 158.662 137.49C158.662 143.773 164.416 148.866 171.513 148.866Z" stroke="#7888C3" stroke-width="6" stroke-linecap="round" stroke-linejoin="round"/>
<path d="M363.988 126.113H212.889V148.175H363.988V126.113Z" stroke="#7888C3" stroke-width="6" stroke-linecap="round" stroke-linejoin="round"/>
<path d="M364.032 188.307H317.882V296.382H364.032V188.307Z" stroke="#56C3B8" stroke-width="6" stroke-linecap="round" stroke-linejoin="round"/>
<path d="M300.575 188.307H115.973V239.286H300.575V188.307Z" stroke="#56C3B8" stroke-width="6" stroke-linecap="round" stroke-linejoin="round"/>
<path d="M162.124 254.58H115.973V295.363H162.124V254.58Z" stroke="#7888C3" stroke-width="6" stroke-linecap="round" stroke-linejoin="round"/>
<path d="M231.349 254.58H185.198V295.363H231.349V254.58Z" stroke="#7888C3" stroke-width="6" stroke-linecap="round" stroke-linejoin="round"/>
<path d="M300.576 254.58H254.425V295.363H300.576V254.58Z" stroke="#7888C3" stroke-width="6" stroke-linecap="round" stroke-linejoin="round"/>
<path d="M161.833 218.369V225.394H158.47V218.369L151.883 207.319H154.845C155.137 207.319 155.366 207.39 155.533 207.531C155.708 207.673 155.854 207.852 155.97 208.069L159.283 214.106C159.474 214.465 159.641 214.806 159.783 215.131C159.924 215.448 160.054 215.76 160.17 216.069C160.279 215.752 160.399 215.435 160.533 215.119C160.674 214.794 160.841 214.456 161.033 214.106L164.32 208.069C164.412 207.885 164.549 207.715 164.733 207.556C164.916 207.398 165.149 207.319 165.433 207.319H168.408L161.833 218.369ZM186.489 216.356C186.489 217.681 186.268 218.91 185.827 220.044C185.385 221.169 184.764 222.144 183.964 222.969C183.164 223.794 182.202 224.44 181.077 224.906C179.952 225.365 178.706 225.594 177.339 225.594C175.972 225.594 174.722 225.365 173.589 224.906C172.464 224.44 171.497 223.794 170.689 222.969C169.889 222.144 169.268 221.169 168.827 220.044C168.385 218.91 168.164 217.681 168.164 216.356C168.164 215.031 168.385 213.806 168.827 212.681C169.268 211.548 169.889 210.569 170.689 209.744C171.497 208.919 172.464 208.277 173.589 207.819C174.722 207.352 175.972 207.119 177.339 207.119C178.706 207.119 179.952 207.352 181.077 207.819C182.202 208.285 183.164 208.931 183.964 209.756C184.764 210.573 185.385 211.548 185.827 212.681C186.268 213.806 186.489 215.031 186.489 216.356ZM183.039 216.356C183.039 215.365 182.906 214.477 182.639 213.694C182.381 212.902 182.006 212.231 181.514 211.681C181.022 211.131 180.422 210.71 179.714 210.419C179.014 210.127 178.222 209.981 177.339 209.981C176.456 209.981 175.66 210.127 174.952 210.419C174.243 210.71 173.639 211.131 173.139 211.681C172.647 212.231 172.268 212.902 172.002 213.694C171.735 214.477 171.602 215.365 171.602 216.356C171.602 217.348 171.735 218.24 172.002 219.031C172.268 219.815 172.647 220.481 173.139 221.031C173.639 221.573 174.243 221.99 174.952 222.281C175.66 222.573 176.456 222.719 177.339 222.719C178.222 222.719 179.014 222.573 179.714 222.281C180.422 221.99 181.022 221.573 181.514 221.031C182.006 220.481 182.381 219.815 182.639 219.031C182.906 218.24 183.039 217.348 183.039 216.356ZM196.422 222.681C197.072 222.681 197.651 222.573 198.159 222.356C198.676 222.14 199.109 221.835 199.459 221.444C199.818 221.052 200.088 220.577 200.272 220.019C200.463 219.46 200.559 218.835 200.559 218.144V207.319H203.922V218.144C203.922 219.219 203.747 220.215 203.397 221.131C203.055 222.04 202.559 222.827 201.909 223.494C201.259 224.152 200.472 224.669 199.547 225.044C198.622 225.41 197.58 225.594 196.422 225.594C195.263 225.594 194.222 225.41 193.297 225.044C192.372 224.669 191.584 224.152 190.934 223.494C190.293 222.827 189.797 222.04 189.447 221.131C189.105 220.215 188.934 219.219 188.934 218.144V207.319H192.297V218.131C192.297 218.823 192.388 219.448 192.572 220.006C192.763 220.565 193.034 221.044 193.384 221.444C193.734 221.835 194.163 222.14 194.672 222.356C195.188 222.573 195.772 222.681 196.422 222.681ZM210.81 218.331V225.394H207.448V207.319H212.96C214.194 207.319 215.248 207.448 216.123 207.706C217.006 207.956 217.727 208.31 218.285 208.769C218.852 209.227 219.264 209.777 219.523 210.419C219.789 211.052 219.923 211.752 219.923 212.519C219.923 213.127 219.831 213.702 219.648 214.244C219.473 214.785 219.214 215.277 218.873 215.719C218.539 216.16 218.123 216.548 217.623 216.881C217.131 217.215 216.569 217.481 215.935 217.681C216.36 217.923 216.727 218.269 217.035 218.719L221.56 225.394H218.535C218.244 225.394 217.994 225.335 217.785 225.219C217.585 225.102 217.414 224.935 217.273 224.719L213.473 218.931C213.331 218.715 213.173 218.56 212.998 218.469C212.831 218.377 212.581 218.331 212.248 218.331H210.81ZM210.81 215.919H212.91C213.544 215.919 214.094 215.84 214.56 215.681C215.035 215.523 215.423 215.306 215.723 215.031C216.031 214.748 216.26 214.415 216.41 214.031C216.56 213.648 216.635 213.227 216.635 212.769C216.635 211.852 216.331 211.148 215.723 210.656C215.123 210.165 214.202 209.919 212.96 209.919H210.81V215.919ZM244.439 225.394H241.839C241.547 225.394 241.305 225.323 241.114 225.181C240.93 225.031 240.797 224.848 240.714 224.631L239.364 220.944H231.876L230.526 224.631C230.459 224.823 230.326 224.998 230.126 225.156C229.934 225.315 229.697 225.394 229.414 225.394H226.801L233.901 207.319H237.339L244.439 225.394ZM232.739 218.569H238.501L236.301 212.556C236.201 212.29 236.089 211.977 235.964 211.619C235.847 211.252 235.73 210.856 235.614 210.431C235.497 210.856 235.38 211.252 235.264 211.619C235.155 211.985 235.047 212.306 234.939 212.581L232.739 218.569ZM262.35 216.356C262.35 217.681 262.129 218.898 261.688 220.006C261.246 221.115 260.625 222.069 259.825 222.869C259.025 223.669 258.063 224.29 256.938 224.731C255.813 225.173 254.567 225.394 253.2 225.394H246.3V207.319H253.2C254.567 207.319 255.813 207.544 256.938 207.994C258.063 208.435 259.025 209.056 259.825 209.856C260.625 210.648 261.246 211.598 261.688 212.706C262.129 213.815 262.35 215.031 262.35 216.356ZM258.913 216.356C258.913 215.365 258.779 214.477 258.513 213.694C258.246 212.902 257.867 212.235 257.375 211.694C256.883 211.144 256.283 210.723 255.575 210.431C254.875 210.14 254.083 209.994 253.2 209.994H249.688V222.719H253.2C254.083 222.719 254.875 222.573 255.575 222.281C256.283 221.99 256.883 221.573 257.375 221.031C257.867 220.481 258.246 219.815 258.513 219.031C258.779 218.24 258.913 217.348 258.913 216.356Z" fill="#56C3B8"/>
<path d="M341.729 205.767V209.42H339.98V205.767L336.555 200.021H338.095C338.247 200.021 338.366 200.057 338.453 200.131C338.544 200.205 338.62 200.298 338.68 200.411L340.403 203.55C340.502 203.736 340.589 203.914 340.663 204.083C340.736 204.248 340.804 204.41 340.864 204.571C340.921 204.406 340.983 204.241 341.053 204.077C341.126 203.908 341.213 203.732 341.313 203.55L343.022 200.411C343.07 200.315 343.141 200.226 343.237 200.144C343.332 200.062 343.453 200.021 343.601 200.021H345.148L341.729 205.767ZM346.565 220.72C346.565 221.409 346.45 222.048 346.22 222.638C345.991 223.223 345.668 223.73 345.252 224.159C344.836 224.588 344.335 224.923 343.75 225.166C343.165 225.404 342.517 225.524 341.807 225.524C341.096 225.524 340.446 225.404 339.857 225.166C339.272 224.923 338.769 224.588 338.349 224.159C337.933 223.73 337.61 223.223 337.38 222.638C337.151 222.048 337.036 221.409 337.036 220.72C337.036 220.031 337.151 219.394 337.38 218.809C337.61 218.22 337.933 217.711 338.349 217.282C338.769 216.853 339.272 216.519 339.857 216.281C340.446 216.038 341.096 215.917 341.807 215.917C342.517 215.917 343.165 216.038 343.75 216.281C344.335 216.523 344.836 216.859 345.252 217.288C345.668 217.713 345.991 218.22 346.22 218.809C346.45 219.394 346.565 220.031 346.565 220.72ZM344.771 220.72C344.771 220.204 344.701 219.743 344.563 219.336C344.428 218.924 344.233 218.575 343.978 218.289C343.722 218.003 343.41 217.784 343.042 217.633C342.678 217.481 342.266 217.405 341.807 217.405C341.347 217.405 340.934 217.481 340.565 217.633C340.197 217.784 339.883 218.003 339.623 218.289C339.367 218.575 339.17 218.924 339.031 219.336C338.893 219.743 338.823 220.204 338.823 220.72C338.823 221.236 338.893 221.699 339.031 222.111C339.17 222.518 339.367 222.865 339.623 223.151C339.883 223.433 340.197 223.649 340.565 223.801C340.934 223.953 341.347 224.029 341.807 224.029C342.266 224.029 342.678 223.953 343.042 223.801C343.41 223.649 343.722 223.433 343.978 223.151C344.233 222.865 344.428 222.518 344.563 222.111C344.701 221.699 344.771 221.236 344.771 220.72ZM341.332 240.009C341.67 240.009 341.971 239.953 342.236 239.84C342.504 239.727 342.73 239.569 342.912 239.366C343.098 239.162 343.239 238.915 343.334 238.625C343.434 238.334 343.484 238.009 343.484 237.65V232.021H345.232V237.65C345.232 238.209 345.141 238.726 344.959 239.203C344.782 239.675 344.524 240.085 344.186 240.432C343.848 240.774 343.438 241.043 342.957 241.238C342.476 241.428 341.935 241.524 341.332 241.524C340.73 241.524 340.188 241.428 339.707 241.238C339.226 241.043 338.817 240.774 338.479 240.432C338.145 240.085 337.887 239.675 337.705 239.203C337.528 238.726 337.439 238.209 337.439 237.65V232.021H339.187V237.643C339.187 238.003 339.235 238.328 339.33 238.618C339.43 238.908 339.571 239.158 339.753 239.366C339.935 239.569 340.158 239.727 340.422 239.84C340.691 239.953 340.994 240.009 341.332 240.009ZM339.356 253.747V257.42H337.608V248.021H340.474C341.116 248.021 341.664 248.088 342.119 248.222C342.578 248.352 342.953 248.536 343.243 248.775C343.538 249.013 343.752 249.299 343.887 249.633C344.025 249.962 344.095 250.326 344.095 250.725C344.095 251.041 344.047 251.34 343.952 251.622C343.861 251.903 343.726 252.159 343.549 252.389C343.375 252.618 343.159 252.82 342.899 252.993C342.643 253.166 342.351 253.305 342.021 253.409C342.242 253.535 342.433 253.715 342.593 253.949L344.946 257.42H343.373C343.222 257.42 343.092 257.389 342.983 257.329C342.879 257.268 342.79 257.181 342.717 257.069L340.741 254.059C340.667 253.946 340.585 253.866 340.494 253.819C340.407 253.771 340.277 253.747 340.104 253.747H339.356ZM339.356 252.493H340.448C340.778 252.493 341.064 252.451 341.306 252.369C341.553 252.287 341.755 252.174 341.911 252.031C342.071 251.884 342.19 251.71 342.268 251.511C342.346 251.312 342.385 251.093 342.385 250.855C342.385 250.378 342.227 250.012 341.911 249.756C341.599 249.5 341.12 249.373 340.474 249.373H339.356V252.493Z" fill="#56C3B8"/>
<path d="M89.4364 165.459H391.146" stroke="#7888C3" stroke-width="6"/>
<path d="M346.151 273.491H344.799C344.647 273.491 344.522 273.454 344.422 273.38C344.327 273.302 344.257 273.207 344.214 273.094L343.512 271.177H339.618L338.916 273.094C338.882 273.194 338.812 273.285 338.708 273.367C338.609 273.45 338.485 273.491 338.338 273.491H336.979L340.671 264.092H342.459L346.151 273.491ZM340.067 269.942H343.063L341.919 266.815C341.867 266.677 341.809 266.514 341.744 266.328C341.683 266.137 341.623 265.931 341.562 265.71C341.501 265.931 341.441 266.137 341.38 266.328C341.324 266.519 341.267 266.685 341.211 266.828L340.067 269.942ZM346.235 284.791C346.235 285.48 346.121 286.113 345.891 286.689C345.661 287.266 345.338 287.762 344.922 288.178C344.506 288.594 344.006 288.917 343.421 289.146C342.836 289.376 342.188 289.491 341.477 289.491H337.889V280.092H341.477C342.188 280.092 342.836 280.209 343.421 280.443C344.006 280.673 344.506 280.995 344.922 281.411C345.338 281.823 345.661 282.317 345.891 282.893C346.121 283.47 346.235 284.102 346.235 284.791ZM344.448 284.791C344.448 284.276 344.379 283.814 344.24 283.407C344.101 282.995 343.904 282.649 343.648 282.367C343.393 282.081 343.081 281.862 342.712 281.71C342.348 281.559 341.937 281.483 341.477 281.483H339.651V288.1H341.477C341.937 288.1 342.348 288.024 342.712 287.872C343.081 287.721 343.393 287.504 343.648 287.222C343.904 286.936 344.101 286.59 344.24 286.182C344.379 285.771 344.448 285.307 344.448 284.791Z" fill="#56C3B8"/>
</svg>
