<svg width="175" height="36" viewBox="0 0 175 36" fill="none" xmlns="http://www.w3.org/2000/svg">
<path d="M-0.0834961 29.1396V3.33049C-0.0834961 3.33049 0.296165 -0.285156 3.55702 -0.285156C6.81787 -0.285156 25.1056 -0.285156 25.1056 -0.285156L20.3259 4.76336H6.06654C6.06654 4.76336 4.97951 4.84274 4.97951 5.84297C4.97951 6.84319 4.97951 13.559 4.97951 13.559C4.97951 13.559 4.96584 13.7857 5.20776 13.7857C5.44968 13.7857 12.7518 13.7857 12.7518 13.7857V18.5384H5.47228C5.47228 18.5384 5.19482 18.5027 5.19482 19.0157C5.19482 19.5286 5.19482 23.9899 5.19482 23.9899L-0.0834961 29.1396Z" fill="black"/>
<path d="M29.1359 2.75781V28.567C29.1359 28.567 28.7562 32.1826 25.4954 32.1826C22.2345 32.1826 3.94678 32.1826 3.94678 32.1826L8.72653 27.1341H22.9859C22.9859 27.1341 24.0729 27.0547 24.0729 26.0545C24.0729 25.0543 24.0729 18.3385 24.0729 18.3385C24.0729 18.3385 24.0866 18.1118 23.8446 18.1118C23.6027 18.1118 16.3006 18.1118 16.3006 18.1118V13.3591H23.5801C23.5801 13.3591 23.8576 13.3947 23.8576 12.8818C23.8576 12.3689 23.8576 7.90755 23.8576 7.90755L29.1359 2.75781Z" fill="#56C3B8"/>
<path d="M40.8137 27.3761C40.9237 27.3761 41.0212 27.4186 41.1062 27.5036L41.9012 28.3661C41.4612 28.9111 40.9187 29.3286 40.2737 29.6186C39.6337 29.9086 38.8637 30.0536 37.9637 30.0536C37.1587 30.0536 36.4337 29.9161 35.7887 29.6411C35.1487 29.3661 34.6012 28.9836 34.1462 28.4936C33.6912 28.0036 33.3412 27.4186 33.0962 26.7386C32.8562 26.0586 32.7362 25.3161 32.7362 24.5111C32.7362 23.6961 32.8662 22.9511 33.1262 22.2761C33.3862 21.5961 33.7512 21.0111 34.2212 20.5211C34.6962 20.0311 35.2612 19.6511 35.9162 19.3811C36.5712 19.1061 37.2962 18.9686 38.0912 18.9686C38.8812 18.9686 39.5812 19.0986 40.1912 19.3586C40.8062 19.6186 41.3287 19.9586 41.7587 20.3786L41.0837 21.3161C41.0437 21.3761 40.9912 21.4286 40.9262 21.4736C40.8662 21.5186 40.7812 21.5411 40.6712 21.5411C40.5962 21.5411 40.5187 21.5211 40.4387 21.4811C40.3587 21.4361 40.2712 21.3836 40.1762 21.3236C40.0812 21.2586 39.9712 21.1886 39.8462 21.1136C39.7212 21.0386 39.5762 20.9711 39.4112 20.9111C39.2462 20.8461 39.0537 20.7936 38.8337 20.7536C38.6187 20.7086 38.3687 20.6861 38.0837 20.6861C37.5987 20.6861 37.1537 20.7736 36.7487 20.9486C36.3487 21.1186 36.0037 21.3686 35.7137 21.6986C35.4237 22.0236 35.1987 22.4236 35.0387 22.8986C34.8787 23.3686 34.7987 23.9061 34.7987 24.5111C34.7987 25.1211 34.8837 25.6636 35.0537 26.1386C35.2287 26.6136 35.4637 27.0136 35.7587 27.3386C36.0537 27.6636 36.4012 27.9136 36.8012 28.0886C37.2012 28.2586 37.6312 28.3436 38.0912 28.3436C38.3662 28.3436 38.6137 28.3286 38.8337 28.2986C39.0587 28.2686 39.2637 28.2211 39.4487 28.1561C39.6387 28.0911 39.8162 28.0086 39.9812 27.9086C40.1512 27.8036 40.3187 27.6761 40.4837 27.5261C40.5337 27.4811 40.5862 27.4461 40.6412 27.4211C40.6962 27.3911 40.7537 27.3761 40.8137 27.3761ZM71.4399 19.0886V29.9336H70.4049C70.2449 29.9336 70.1099 29.9086 69.9999 29.8586C69.8949 29.8036 69.7924 29.7136 69.6924 29.5886L64.0299 22.3586C64.0599 22.6886 64.0749 22.9936 64.0749 23.2736V29.9336H62.2974V19.0886H63.3549C63.4399 19.0886 63.5124 19.0936 63.5724 19.1036C63.6374 19.1086 63.6924 19.1236 63.7374 19.1486C63.7874 19.1686 63.8349 19.2011 63.8799 19.2461C63.9249 19.2861 63.9749 19.3411 64.0299 19.4111L69.7149 26.6711C69.6999 26.4961 69.6874 26.3236 69.6774 26.1536C69.6674 25.9836 69.6624 25.8261 69.6624 25.6811V19.0886H71.4399ZM86.4476 19.0886V29.9336H85.4126C85.2526 29.9336 85.1176 29.9086 85.0076 29.8586C84.9026 29.8036 84.8001 29.7136 84.7001 29.5886L79.0376 22.3586C79.0676 22.6886 79.0826 22.9936 79.0826 23.2736V29.9336H77.3051V19.0886H78.3626C78.4476 19.0886 78.5201 19.0936 78.5801 19.1036C78.6451 19.1086 78.7001 19.1236 78.7451 19.1486C78.7951 19.1686 78.8426 19.2011 78.8876 19.2461C78.9326 19.2861 78.9826 19.3411 79.0376 19.4111L84.7226 26.6711C84.7076 26.4961 84.6951 26.3236 84.6851 26.1536C84.6751 25.9836 84.6701 25.8261 84.6701 25.6811V19.0886H86.4476ZM94.3377 20.6936V23.7011H98.1327V25.2536H94.3377V28.3211H99.1527V29.9336H92.3127V19.0886H99.1527V20.6936H94.3377ZM111.604 27.3761C111.714 27.3761 111.811 27.4186 111.896 27.5036L112.691 28.3661C112.251 28.9111 111.709 29.3286 111.064 29.6186C110.424 29.9086 109.654 30.0536 108.754 30.0536C107.949 30.0536 107.224 29.9161 106.579 29.6411C105.939 29.3661 105.391 28.9836 104.936 28.4936C104.481 28.0036 104.131 27.4186 103.886 26.7386C103.646 26.0586 103.526 25.3161 103.526 24.5111C103.526 23.6961 103.656 22.9511 103.916 22.2761C104.176 21.5961 104.541 21.0111 105.011 20.5211C105.486 20.0311 106.051 19.6511 106.706 19.3811C107.361 19.1061 108.086 18.9686 108.881 18.9686C109.671 18.9686 110.371 19.0986 110.981 19.3586C111.596 19.6186 112.119 19.9586 112.549 20.3786L111.874 21.3161C111.834 21.3761 111.781 21.4286 111.716 21.4736C111.656 21.5186 111.571 21.5411 111.461 21.5411C111.386 21.5411 111.309 21.5211 111.229 21.4811C111.149 21.4361 111.061 21.3836 110.966 21.3236C110.871 21.2586 110.761 21.1886 110.636 21.1136C110.511 21.0386 110.366 20.9711 110.201 20.9111C110.036 20.8461 109.844 20.7936 109.624 20.7536C109.409 20.7086 109.159 20.6861 108.874 20.6861C108.389 20.6861 107.944 20.7736 107.539 20.9486C107.139 21.1186 106.794 21.3686 106.504 21.6986C106.214 22.0236 105.989 22.4236 105.829 22.8986C105.669 23.3686 105.589 23.9061 105.589 24.5111C105.589 25.1211 105.674 25.6636 105.844 26.1386C106.019 26.6136 106.254 27.0136 106.549 27.3386C106.844 27.6636 107.191 27.9136 107.591 28.0886C107.991 28.2586 108.421 28.3436 108.881 28.3436C109.156 28.3436 109.404 28.3286 109.624 28.2986C109.849 28.2686 110.054 28.2211 110.239 28.1561C110.429 28.0911 110.606 28.0086 110.771 27.9086C110.941 27.8036 111.109 27.6761 111.274 27.5261C111.324 27.4811 111.376 27.4461 111.431 27.4211C111.486 27.3911 111.544 27.3761 111.604 27.3761ZM125.098 20.7461H121.828V29.9336H119.811V20.7461H116.541V19.0886H125.098V20.7461Z" fill="#221F1F"/>
<path d="M57.0757 24.5111C57.0757 25.3061 56.9432 26.0436 56.6782 26.7236C56.4182 27.3986 56.0482 27.9836 55.5682 28.4786C55.0882 28.9736 54.5107 29.3611 53.8357 29.6411C53.1607 29.9161 52.4107 30.0536 51.5857 30.0536C50.7657 30.0536 50.0182 29.9161 49.3432 29.6411C48.6682 29.3611 48.0882 28.9736 47.6032 28.4786C47.1232 27.9836 46.7507 27.3986 46.4857 26.7236C46.2207 26.0436 46.0882 25.3061 46.0882 24.5111C46.0882 23.7161 46.2207 22.9811 46.4857 22.3061C46.7507 21.6261 47.1232 21.0386 47.6032 20.5436C48.0882 20.0486 48.6682 19.6636 49.3432 19.3886C50.0182 19.1086 50.7657 18.9686 51.5857 18.9686C52.1357 18.9686 52.6532 19.0336 53.1382 19.1636C53.6232 19.2886 54.0682 19.4686 54.4732 19.7036C54.8782 19.9336 55.2407 20.2161 55.5607 20.5511C55.8857 20.8811 56.1607 21.2511 56.3857 21.6611C56.6107 22.0711 56.7807 22.5161 56.8957 22.9961C57.0157 23.4761 57.0757 23.9811 57.0757 24.5111ZM55.0132 24.5111C55.0132 23.9161 54.9332 23.3836 54.7732 22.9136C54.6132 22.4386 54.3857 22.0361 54.0907 21.7061C53.7957 21.3761 53.4357 21.1236 53.0107 20.9486C52.5907 20.7736 52.1157 20.6861 51.5857 20.6861C51.0557 20.6861 50.5782 20.7736 50.1532 20.9486C49.7332 21.1236 49.3732 21.3761 49.0732 21.7061C48.7782 22.0361 48.5507 22.4386 48.3907 22.9136C48.2307 23.3836 48.1507 23.9161 48.1507 24.5111C48.1507 25.1061 48.2307 25.6411 48.3907 26.1161C48.5507 26.5861 48.7782 26.9861 49.0732 27.3161C49.3732 27.6411 49.7332 27.8911 50.1532 28.0661C50.5782 28.2411 51.0557 28.3286 51.5857 28.3286C52.1157 28.3286 52.5907 28.2411 53.0107 28.0661C53.4357 27.8911 53.7957 27.6411 54.0907 27.3161C54.3857 26.9861 54.6132 26.5861 54.7732 26.1161C54.9332 25.6411 55.0132 25.1061 55.0132 24.5111Z" fill="white"/>
<path d="M36.31 2.68V6.96H41.73V9.11H36.31V15H33.61V0.539999H42.73V2.68H36.31ZM52.9081 7.42C53.4148 7.42 53.8548 7.35667 54.2281 7.23C54.6081 7.10333 54.9181 6.93 55.1581 6.71C55.4048 6.48333 55.5881 6.21667 55.7081 5.91C55.8281 5.60333 55.8881 5.26667 55.8881 4.9C55.8881 4.16667 55.6448 3.60333 55.1581 3.21C54.6781 2.81667 53.9415 2.62 52.9481 2.62H51.2281V7.42H52.9081ZM59.8281 15H57.3981C56.9381 15 56.6048 14.82 56.3981 14.46L53.3581 9.83C53.2448 9.65667 53.1181 9.53333 52.9781 9.46C52.8448 9.38667 52.6448 9.35 52.3781 9.35H51.2281V15H48.5381V0.539999H52.9481C53.9281 0.539999 54.7681 0.643332 55.4681 0.849999C56.1748 1.05 56.7515 1.33333 57.1981 1.7C57.6515 2.06667 57.9848 2.50667 58.1981 3.02C58.4115 3.52667 58.5181 4.08667 58.5181 4.7C58.5181 5.18667 58.4448 5.64667 58.2981 6.08C58.1581 6.51333 57.9515 6.90667 57.6781 7.26C57.4115 7.61333 57.0781 7.92333 56.6781 8.19C56.2848 8.45667 55.8348 8.66667 55.3281 8.82C55.5015 8.92 55.6615 9.04 55.8081 9.18C55.9548 9.31333 56.0881 9.47333 56.2081 9.66L59.8281 15ZM78.5844 7.77C78.5844 8.83 78.4077 9.81333 78.0544 10.72C77.7077 11.62 77.2144 12.4 76.5744 13.06C75.9344 13.72 75.1644 14.2367 74.2644 14.61C73.3644 14.9767 72.3644 15.16 71.2644 15.16C70.171 15.16 69.1744 14.9767 68.2744 14.61C67.3744 14.2367 66.601 13.72 65.9544 13.06C65.3144 12.4 64.8177 11.62 64.4644 10.72C64.111 9.81333 63.9344 8.83 63.9344 7.77C63.9344 6.71 64.111 5.73 64.4644 4.83C64.8177 3.92333 65.3144 3.14 65.9544 2.48C66.601 1.82 67.3744 1.30667 68.2744 0.94C69.1744 0.566667 70.171 0.38 71.2644 0.38C71.9977 0.38 72.6877 0.466666 73.3344 0.639999C73.981 0.806666 74.5744 1.04667 75.1144 1.36C75.6544 1.66667 76.1377 2.04333 76.5644 2.49C76.9977 2.93 77.3644 3.42333 77.6644 3.97C77.9644 4.51667 78.191 5.11 78.3444 5.75C78.5044 6.39 78.5844 7.06333 78.5844 7.77ZM75.8344 7.77C75.8344 6.97667 75.7277 6.26667 75.5144 5.64C75.301 5.00667 74.9977 4.47 74.6044 4.03C74.211 3.59 73.731 3.25333 73.1644 3.02C72.6044 2.78667 71.971 2.67 71.2644 2.67C70.5577 2.67 69.921 2.78667 69.3544 3.02C68.7944 3.25333 68.3144 3.59 67.9144 4.03C67.521 4.47 67.2177 5.00667 67.0044 5.64C66.791 6.26667 66.6844 6.97667 66.6844 7.77C66.6844 8.56333 66.791 9.27667 67.0044 9.91C67.2177 10.5367 67.521 11.07 67.9144 11.51C68.3144 11.9433 68.7944 12.2767 69.3544 12.51C69.921 12.7433 70.5577 12.86 71.2644 12.86C71.971 12.86 72.6044 12.7433 73.1644 12.51C73.731 12.2767 74.211 11.9433 74.6044 11.51C74.9977 11.07 75.301 10.5367 75.5144 9.91C75.7277 9.27667 75.8344 8.56333 75.8344 7.77ZM96.7367 0.539999V15H95.3567C95.1434 15 94.9634 14.9667 94.8167 14.9C94.6767 14.8267 94.5401 14.7067 94.4067 14.54L86.8567 4.9C86.8967 5.34 86.9167 5.74667 86.9167 6.12V15H84.5467V0.539999H85.9567C86.0701 0.539999 86.1667 0.546666 86.2467 0.559999C86.3334 0.566666 86.4067 0.586666 86.4667 0.619999C86.5334 0.646666 86.5967 0.69 86.6567 0.749999C86.7167 0.803333 86.7834 0.876666 86.8567 0.969999L94.4367 10.65C94.4167 10.4167 94.4001 10.1867 94.3867 9.96C94.3734 9.73333 94.3667 9.52333 94.3667 9.33V0.539999H96.7367ZM113.657 2.75H109.297V15H106.607V2.75H102.247V0.539999H113.657V2.75ZM121.849 15H119.149V0.539999H121.849V15ZM131.387 2.68V6.69H136.447V8.76H131.387V12.85H137.807V15H128.687V0.539999H137.807V2.68H131.387ZM148.16 7.42C148.667 7.42 149.107 7.35667 149.48 7.23C149.86 7.10333 150.17 6.93 150.41 6.71C150.657 6.48333 150.84 6.21667 150.96 5.91C151.08 5.60333 151.14 5.26667 151.14 4.9C151.14 4.16667 150.897 3.60333 150.41 3.21C149.93 2.81667 149.194 2.62 148.2 2.62H146.48V7.42H148.16ZM155.08 15H152.65C152.19 15 151.857 14.82 151.65 14.46L148.61 9.83C148.497 9.65667 148.37 9.53333 148.23 9.46C148.097 9.38667 147.897 9.35 147.63 9.35H146.48V15H143.79V0.539999H148.2C149.18 0.539999 150.02 0.643332 150.72 0.849999C151.427 1.05 152.004 1.33333 152.45 1.7C152.904 2.06667 153.237 2.50667 153.45 3.02C153.664 3.52667 153.77 4.08667 153.77 4.7C153.77 5.18667 153.697 5.64667 153.55 6.08C153.41 6.51333 153.204 6.90667 152.93 7.26C152.664 7.61333 152.33 7.92333 151.93 8.19C151.537 8.45667 151.087 8.66667 150.58 8.82C150.754 8.92 150.914 9.04 151.06 9.18C151.207 9.31333 151.34 9.47333 151.46 9.66L155.08 15Z" fill="#221F1F"/>
<path d="M57 24.5C57 25.9587 56.4205 27.3576 55.3891 28.389C54.3577 29.4205 52.9588 30 51.5001 30C50.0414 30 48.6425 29.4206 47.611 28.3892C46.5796 27.3578 46.0001 25.9589 46 24.5002C46 23.0415 46.5794 21.6426 47.6108 20.6111C48.6422 19.5796 50.041 19.0001 51.4997 19C52.9584 18.9999 54.3573 19.5793 55.3888 20.6107C56.4203 21.642 56.9999 23.0413 57 24.5Z" fill="#1F8E7D"/>
<path d="M56.3864 24.5C56.3864 25.7598 55.9314 26.9679 55.1216 27.8587C54.3118 28.7495 53.2135 29.25 52.0683 29.25C50.923 29.25 49.8247 28.7496 49.0148 27.8588C48.205 26.9681 47.75 25.7599 47.75 24.5002C47.75 23.2404 48.2049 22.0322 49.0146 21.1414C49.8244 20.2506 50.9227 19.7501 52.0679 19.75C53.2132 19.7499 54.3115 20.2503 55.1214 21.1411C55.9313 22.0318 56.3863 23.2402 56.3864 24.5Z" fill="white"/>
</svg>
