<?xml version="1.0" encoding="utf-8"?>
<!-- Svg Vector Icons : http://www.onlinewebfonts.com/icon -->
<!DOCTYPE svg PUBLIC "-//W3C//DTD SVG 1.1//EN" "http://www.w3.org/Graphics/SVG/1.1/DTD/svg11.dtd">
<svg version="1.1" xmlns="http://www.w3.org/2000/svg" xmlns:xlink="http://www.w3.org/1999/xlink" x="0px" y="0px" viewBox="0 0 1000 1000" enable-background="new 0 0 1000 1000" xml:space="preserve" stroke ='white' fill='white'>
<metadata> Svg Vector Icons : http://www.onlinewebfonts.com/icon </metadata>
<g><path d="M188.1,911.6c-43.3,0-78.4-35.1-78.4-78.4V166.8c0-43.3,35.1-78.4,78.4-78.4l246.5-0.2c28.3,7.2,27.9,41.9,27.9,76.7v119.4c0,21.6,17.6,39.2,39.2,39.2h117.6c39.1,0,78.4,0.2,78.4,39.2v148.4c24.7-10.2,51-17.2,78.4-20.7v-167c0-41.7-38.7-81.6-107.2-148.7c-9.6-9.4-19.4-19-29-28.7c-9.7-9.6-19.3-19.4-28.7-29C544.1,48.7,504.2,10,462.5,10H188.1C101.7,10,31.3,80.4,31.3,166.8v666.4c0,86.4,70.4,156.8,156.8,156.8h392c-19.6-23.4-35.6-49.8-47.6-78.4H188.1z"/><path d="M618.3,399.2c0-13.8-11.3-25.2-25.2-25.2H222.3c-13.8,0-25.2,11.3-25.2,25.2v13.1c0,13.8,11.3,25.2,25.2,25.2h370.8c13.8,0,25.2-11.3,25.2-25.2L618.3,399.2L618.3,399.2z"/><path d="M618.3,552.5v-13.1c0-13.8-11.3-25.2-25.2-25.2H222.3c-13.8,0-25.2,11.3-25.2,25.2v13.1c0,13.8,11.3,25.2,25.2,25.2h370.8C607,577.6,618.3,566.3,618.3,552.5z"/><path d="M222.3,654.4c-13.8,0-25.2,11.3-25.2,25.2v13.1c0,13.8,11.3,25.2,25.2,25.2h139.8c13.8,0,25.2-11.3,25.2-25.2v-13.1c0-13.8-11.3-25.2-25.2-25.2H222.3z"/><path d="M911.7,722.8c-3.9-14.5-9.6-28.1-16.9-40.8l32.1-48.5l-0.1-0.1l-45.7-45.7l-0.1-0.1l-48.5,32.1c-12.7-7.3-26.4-13-40.8-16.9l-11.6-57h-0.1h-64.6h-0.1l-11.6,57c-14.5,3.9-28.1,9.6-40.8,16.9l-48.5-32.1l-0.1,0.1l-45.7,45.7l-0.1,0.1L601,682c-7.3,12.7-13,26.4-16.9,40.8l-57,11.6v0.1V799v0.1l57,11.6c3.9,14.5,9.6,28.1,16.9,40.8L568.9,900l0.1,0.1l45.7,45.7l0.1,0.1l48.5-32.1c12.7,7.3,26.3,13,40.8,16.9l11.6,57h0.1h64.6h0.1l11.6-57c14.4-3.9,28.1-9.6,40.8-16.9l48.5,32.1l0.1-0.1l45.7-45.7l0.1-0.1l-32.1-48.5c7.3-12.7,13-26.3,16.9-40.8l57-11.6V799v-64.6v-0.1L911.7,722.8z M747.9,841.9c-38.2,0-69.1-30.9-69.1-69.1c0-38.2,30.9-69.1,69.1-69.1c38.2,0,69.1,30.9,69.1,69.1C817,811,786,841.9,747.9,841.9z"/></g>
</svg>