<svg width="20" height="20" viewBox="0 0 20 20" fill="none" xmlns="http://www.w3.org/2000/svg">
<circle cx="10" cy="10" r="9.5" stroke="#ADAFB5"/>
<path d="M11.5849 9.47031L8.95936 8.72969C8.65548 8.64531 8.44398 8.37109 8.44398 8.06641C8.44398 7.68438 8.76488 7.375 9.16114 7.375H10.7729C11.0695 7.375 11.3613 7.46172 11.6044 7.62109C11.7527 7.71719 11.952 7.69375 12.0784 7.57422L12.9245 6.77734C13.0971 6.61562 13.0727 6.34609 12.8807 6.20312C12.2851 5.75312 11.5412 5.50234 10.7778 5.5V4.375C10.7778 4.16875 10.6028 4 10.3888 4H9.61089C9.39696 4 9.22192 4.16875 9.22192 4.375V5.5H9.16114C7.61255 5.5 6.36784 6.78203 6.51127 8.30313C6.61337 9.38359 7.46911 10.2625 8.54851 10.5672L11.0404 11.2703C11.3443 11.357 11.5558 11.6289 11.5558 11.9336C11.5558 12.3156 11.2349 12.625 10.8386 12.625H9.22678C8.93019 12.625 8.63846 12.5383 8.39535 12.3789C8.24706 12.2828 8.04771 12.3062 7.92129 12.4258L7.07528 13.2227C6.90267 13.3844 6.92698 13.6539 7.11904 13.7969C7.71465 14.2469 8.45856 14.4977 9.22192 14.5V15.625C9.22192 15.8313 9.39696 16 9.61089 16H10.3888C10.6028 16 10.7778 15.8313 10.7778 15.625V14.4953C11.9107 14.4742 12.9731 13.825 13.3475 12.7914C13.8701 11.3477 12.9925 9.86641 11.5849 9.47031Z" fill="#ADAFB5"/>
</svg>
