<svg width="1643" height="1450" viewBox="0 0 1643 1450" fill="none" xmlns="http://www.w3.org/2000/svg">
<g clip-path="url(#clip0_1_2)">
<rect width="1643" height="1450" fill="white"/>
<path d="M192.5 1119C278.104 1119 347.5 1049.6 347.5 964C347.5 878.396 278.104 809 192.5 809C106.896 809 37.5 878.396 37.5 964C37.5 1049.6 106.896 1119 192.5 1119Z" fill="#FCD55D"/>
<path d="M66.5 1281C68.5 1247 24.5 1224.17 0.5 1212V1386.5C50 1345.5 64.5593 1313.99 66.5 1281Z" fill="#FFA500"/>
<path d="M1890.5 419C1890.5 530.562 1792.78 621 1681.5 621C1566.5 627 1460.34 492.5 1480 419C1509.5 290 1577.71 217 1689 217C1800.28 217 1890.5 307.438 1890.5 419Z" fill="#FFDB73"/>
<path d="M1703.5 252C1773.09 252 1829.5 195.588 1829.5 126C1829.5 56.4121 1773.09 0 1703.5 0C1633.91 0 1577.5 56.4121 1577.5 126C1577.5 195.588 1633.91 252 1703.5 252Z" fill="#FFD43E"/>
<path d="M1574 1248.5C1616 1238.5 1660.5 1263.67 1677.5 1277.5C1717.5 1313 1711 1351 1709 1375.5C1707 1400 1616.5 1446.5 1564.5 1449C1512.5 1451.5 1510.5 1335.5 1512 1324C1513.5 1312.5 1521.5 1261 1574 1248.5Z" fill="#00C6BA"/>
<path d="M176.5 140.5C188.618 271 73 333.833 0 377.5V88.4999C8.5 83.3332 34.9 71.1999 72.5 63.9999C119.5 54.9999 170 70.5 176.5 140.5Z" fill="#F6F8F8"/>
</g>
<defs>
<clipPath id="clip0_1_2">
<rect width="1643" height="1450" fill="white"/>
</clipPath>
</defs>
</svg>
