<svg width="20" height="21" viewBox="0 0 20 21" fill="none" xmlns="http://www.w3.org/2000/svg">
<circle cx="10" cy="10.25" r="9.5" stroke="#FF0000"/>
<path d="M8.61458 12.9572H8.97917V10.4178H8.61458C8.41322 10.4178 8.25 10.2605 8.25 10.0663V9.22656C8.25 9.03239 8.41322 8.875 8.61458 8.875H10.6562C10.8576 8.875 11.0208 9.03239 11.0208 9.22656V12.9572H11.3854C11.5868 12.9572 11.75 13.1145 11.75 13.3087V14.1484C11.75 14.3426 11.5868 14.5 11.3854 14.5H8.61458C8.41322 14.5 8.25 14.3426 8.25 14.1484V13.3087C8.25 13.1145 8.41322 12.9572 8.61458 12.9572ZM10 5.5C9.27512 5.5 8.6875 6.06663 8.6875 6.76562C8.6875 7.46462 9.27512 8.03125 10 8.03125C10.7249 8.03125 11.3125 7.46462 11.3125 6.76562C11.3125 6.06663 10.7249 5.5 10 5.5Z" fill="#FF0000"/>
</svg>
