<svg width="32" height="31" viewBox="0 0 32 31" fill="none" xmlns="http://www.w3.org/2000/svg">
<path d="M21.0683 18.6166C20.8225 18.3827 20.4961 18.2523 20.1568 18.2523H19.784C19.6938 18.2523 19.6069 18.2186 19.5404 18.1578C19.3935 18.0237 19.3833 17.7965 19.5103 17.6434C20.9367 15.9244 21.6513 13.6543 21.2259 11.2492C20.6062 7.77891 17.5477 5.00764 13.8563 4.58322C8.27962 3.93409 3.58628 8.3781 4.27182 13.6585C4.72006 17.1538 7.64681 20.0499 11.3118 20.6366C13.8609 21.0408 16.2664 20.3579 18.0842 18.9977C18.239 18.8819 18.4561 18.8914 18.594 19.0269C18.6668 19.0983 18.7078 19.196 18.7078 19.298V19.6255C18.7078 19.9442 18.8389 20.2489 19.0704 20.4681L24.3108 25.4301C24.8513 25.9419 25.7346 25.9419 26.2752 25.4301C26.8157 24.9183 26.8157 24.0819 26.2752 23.5701L21.0683 18.6166ZM12.7752 18.2523C9.49251 18.2523 6.84261 15.7432 6.84261 12.6349C6.84261 9.52655 9.49251 7.01743 12.7752 7.01743C16.0579 7.01743 18.7078 9.52655 18.7078 12.6349C18.7078 15.7432 16.0579 18.2523 12.7752 18.2523Z" fill="#3D4459"/>
</svg>
