<svg width="40" height="33" viewBox="0 0 40 33" fill="none" xmlns="http://www.w3.org/2000/svg">
<path d="M7.06989 27H11.8499H28.1027H32.8827C34.7947 26.8333 38.6187 25.2 38.6187 20C38.6187 14.8 34.7947 13.1667 32.8827 13H30.0147V9.5C30.0147 6.66667 28.0071 1 19.9767 1C11.9463 1 9.93873 6.66667 9.93873 9.5V13H7.06989C5.31723 13 1.71629 14.4 1.33389 20C0.951494 25.6 4.99856 27 7.06989 27Z" fill="white"/>
<path d="M11.8499 27H7.06989C4.99856 27 0.951494 25.6 1.33389 20C1.71629 14.4 5.31723 13 7.06989 13H9.93873V9.5C9.93873 6.66667 11.9463 1 19.9767 1C28.0071 1 30.0147 6.66667 30.0147 9.5V13H32.8827C34.7947 13.1667 38.6187 14.8 38.6187 20C38.6187 25.2 34.7947 26.8333 32.8827 27H28.1027" stroke="#3D4459" stroke-width="2" stroke-linecap="round"/>
<path d="M16.1523 24L19.9763 19.5M19.9763 19.5L23.8003 24M19.9763 19.5V31.5" stroke="#3D4459" stroke-width="2" stroke-linecap="round"/>
</svg>
