<svg width="23" height="23" viewBox="0 0 23 23" fill="none" xmlns="http://www.w3.org/2000/svg">
<path d="M21.8671 10.9677C19.7958 7.11005 15.6953 4.5 11 4.5C6.30475 4.5 2.20304 7.11188 0.132896 10.9681C0.045523 11.1331 0 11.3153 0 11.5002C0 11.685 0.045523 11.8673 0.132896 12.0323C2.20418 15.8899 6.30475 18.5 11 18.5C15.6953 18.5 19.797 15.8881 21.8671 12.0319C21.9545 11.8669 22 11.6847 22 11.4998C22 11.315 21.9545 11.1327 21.8671 10.9677ZM11 16.75C9.9122 16.75 8.84883 16.4421 7.94436 15.8652C7.03989 15.2883 6.33494 14.4684 5.91865 13.5091C5.50237 12.5498 5.39345 11.4942 5.60567 10.4758C5.81789 9.45738 6.34172 8.52191 7.11091 7.78769C7.8801 7.05346 8.8601 6.55345 9.927 6.35088C10.9939 6.1483 12.0998 6.25227 13.1048 6.64963C14.1098 7.04699 14.9687 7.7199 15.5731 8.58326C16.1774 9.44661 16.5 10.4616 16.5 11.5C16.5004 12.1895 16.3583 12.8724 16.0821 13.5095C15.8058 14.1466 15.4007 14.7255 14.8899 15.2131C14.3791 15.7006 13.7726 16.0873 13.1052 16.3511C12.4377 16.6148 11.7224 16.7503 11 16.75ZM11 8C10.6727 8.00437 10.3476 8.05084 10.0333 8.13818C10.2923 8.4742 10.4166 8.88772 10.3837 9.30373C10.3507 9.71974 10.1626 10.1107 9.85359 10.4057C9.54454 10.7007 9.13496 10.8802 8.69914 10.9117C8.26332 10.9432 7.83011 10.8245 7.47808 10.5772C7.27763 11.2822 7.31381 12.0294 7.58155 12.7137C7.84928 13.398 8.33508 13.9849 8.97058 14.3919C9.60607 14.7988 10.3593 15.0053 11.1241 14.9822C11.889 14.9591 12.627 14.7077 13.2343 14.2633C13.8417 13.8189 14.2877 13.2038 14.5096 12.5048C14.7316 11.8057 14.7183 11.0578 14.4716 10.3664C14.2249 9.67488 13.7573 9.07466 13.1346 8.65016C12.5118 8.22567 11.7652 7.99828 11 8Z" fill="#D1D5DB"/>

<path d="M0.5 1L21.7132 22.2132" stroke="#D1D5DB"/>
</svg>
