<svg width="23" height="23" viewBox="0 0 23 23" fill="none" xmlns="http://www.w3.org/2000/svg">
<path d="M21.8671 6.96771C19.7958 3.11005 15.6953 0.5 11 0.5C6.30475 0.5 2.20304 3.11188 0.132896 6.96807C0.045523 7.13305 0 7.31532 0 7.50018C0 7.68504 0.045523 7.86731 0.132896 8.03229C2.20418 11.8899 6.30475 14.5 11 14.5C15.6953 14.5 19.797 11.8881 21.8671 8.03193C21.9545 7.86695 22 7.68468 22 7.49982C22 7.31496 21.9545 7.13269 21.8671 6.96771ZM11 12.75C9.9122 12.75 8.84883 12.4421 7.94436 11.8652C7.03989 11.2883 6.33494 10.4684 5.91865 9.50909C5.50237 8.54978 5.39345 7.49418 5.60567 6.47578C5.81789 5.45738 6.34172 4.52191 7.11091 3.78769C7.8801 3.05346 8.8601 2.55345 9.927 2.35088C10.9939 2.1483 12.0998 2.25227 13.1048 2.64963C14.1098 3.04699 14.9687 3.7199 15.5731 4.58326C16.1774 5.44661 16.5 6.46165 16.5 7.5C16.5004 8.18953 16.3583 8.87237 16.0821 9.50949C15.8058 10.1466 15.4007 10.7255 14.8899 11.2131C14.3791 11.7006 13.7726 12.0873 13.1052 12.3511C12.4377 12.6148 11.7224 12.7503 11 12.75ZM11 4C10.6727 4.00437 10.3476 4.05084 10.0333 4.13818C10.2923 4.4742 10.4166 4.88772 10.3837 5.30373C10.3507 5.71974 10.1626 6.1107 9.85359 6.4057C9.54454 6.70071 9.13496 6.88022 8.69914 6.91169C8.26332 6.94316 7.83011 6.82451 7.47808 6.57724C7.27763 7.28219 7.31381 8.0294 7.58155 8.7137C7.84928 9.39799 8.33508 9.98492 8.97058 10.3919C9.60607 10.7988 10.3593 11.0053 11.1241 10.9822C11.889 10.9591 12.627 10.7077 13.2343 10.2633C13.8417 9.81887 14.2877 9.20385 14.5096 8.50479C14.7316 7.80573 14.7183 7.05783 14.4716 6.36635C14.2249 5.67488 13.7573 5.07466 13.1346 4.65017C12.5118 4.22567 11.7652 3.99828 11 4Z" fill="#D1D5DB"/>
</svg>
